# xmcd
#
# Track frame offsets:
#	150
#	18417
#	29962
#	44917
#	68432
#	86749
#	100394
#	121537
#	136449
#	156537
#	175414
#	191164
#	207662
#	225099
#	239019
#	255264
#
# Disc length: 3650
#
# Revision: 3
# Processed by: cddbd v1.5.1PL0 Copyright (c) Steve Scherf et al.
# Submitted via: audiograbber 1.83.01
# Normalized: r2:TDELIM( - )
#
DISCID=e70e4010
DTITLE=Karaoke - MH003
DYEAR=1900
DGENRE=Country Male Artists
TTITLE0=Strait, George - 1 - Carrying Your Love With Me
TTITLE1=Jackson, Alan - 2 - Chattahochee
TTITLE2=Chesney, Kenny - 3 - How Forever Feels
TTITLE3=Carlisle, Bob - 4 - Butterfly Kisses
TTITLE4=Lonestar - 5 - Amazed
TTITLE5=McGraw, Tim - 6 - Indian Outlaw
TTITLE6=McGraw, Tim - 7 - Please Remember Me
TTITLE7=Brooks and Dunn - 8 - Boot Scootin' Boogie
TTITLE8=Brooks, Garth - 9 - Friends In Low Places
TTITLE9=McGraw, Tim - 10 - Don't Take the Girl
TTITLE10=Brooks, Garth - 11 - Thunder Rolls, The
TTITLE11=Black, Clint - 12 - Like The Rain
TTITLE12=Brooks, Garth - 13 - Dance, The
TTITLE13=Raye, Collin - 14 - That's My Story
TTITLE14=Cyrus, Billy Ray - 15 - Achy Breaky Heart
TTITLE15=Gill, Vince - 16 - Pocket Full Of Gold
EXTD=
EXTT0=
EXTT1=
EXTT2=
EXTT3=
EXTT4=
EXTT5=
EXTT6=
EXTT7=
EXTT8=
EXTT9=
EXTT10=
EXTT11=
EXTT12=
EXTT13=
EXTT14=
EXTT15=
PLAYORDER=
